<svg xmlns="http://www.w3.org/2000/svg" width="40" height="40" viewBox="7.6 10 40 40" aria-hidden="true">
  <g transform="translate(4 2) scale(0.046)" fill="black">
    <path d="M494.7 224c-33.3 30.3-71.4 51.2-117.1 64.4-26 7.6-68 12.5-93.6 11.1-26.3-1.4-57.8-6.1-77.8-11.6-6.2-1.7-11.4-3-11.6-2.8-.3.4-.1 21.5 2.4 193.4 1.7 123.5 3 138.4 16.4 191 27.7 108.9 89.9 203.4 185 281.4 19.2 15.7 53.1 39.1 76.1 52.4 17 9.8 38.9 20.7 41.6 20.7 4.6 0 42.6-21.8 65.9-37.9 71.2-49 131.3-113.3 172.7-184.6 11.1-19 26.9-52.2 34.7-72.5 7.1-18.7 17.3-52.4 21.5-71.5 2.5-11.6 6.7-38.7 8.8-56.8 1.2-11.1 1.5-24.5 1.5-62.2-.1-67-3.5-260.1-4.6-261.2-.2-.3-7.1 1.3-15.3 3.6-28.9 7.8-44 10.4-70.3 12.2-27.2 1.7-59.7-.2-83.5-5.1-13.1-2.7-39.9-10.5-50-14.5-30.9-12.6-61.2-31-84-51.4-4.4-3.9-8.2-7.1-8.5-7-.3 0-4.9 4-10.3 8.9m21.6 36.4c30.9 22.5 64.2 38.9 100.7 49.4 25.3 7.4 51.4 11.1 83 11.9 27.6.7 43.8-.5 70.3-4.8 10.3-1.7 19-3 19.2-2.8.4.5 2.2 109.3 3.1 196.4.8 74.1-.5 94.8-8.2 132-12.5 59.6-32.6 110.5-63 159.1-34.2 54.7-83 107.2-136.9 147.5-20.2 15.1-43.2 30.1-62.1 40.5l-6.3 3.5-7.3-3.7c-26.4-13.3-59.8-34.9-86.8-56.3-35.4-28-73.2-66.4-98.1-99.6-43.2-57.5-72.8-121.2-86.4-186-8.8-41.6-10.3-57.8-11.5-126.5-1.6-87.3-3-199.4-2.5-199.9.3-.2 5.8.5 12.3 1.7 21.4 3.9 31.9 4.7 60.2 4.7 29.8 0 39.3-.8 63.6-5.6 43.3-8.4 79.5-23.2 115.4-47.1 8-5.3 17.9-12.4 22-15.7s7.9-6 8.3-6.1c.5 0 5.4 3.3 11 7.4"/><path d="m501.5 338-4.9 4.9 2.1 14.3c1.1 7.9 1.9 14.5 1.7 14.6-.1.2-3.3-3.6-7.1-8.4-12-15.4-10.8-14.5-18.5-13.8l-6.8.7V364l10.3 7.6c5.6 4.2 10.9 7.9 11.7 8.4 3.3 1.9-.4 2-14 .3l-14.2-1.7-4.4 4.6c-2.4 2.6-4.4 5.1-4.4 5.6 0 .6 1.9 3.1 4.3 5.7l4.2 4.7 13.8-2.2c7.6-1.2 14.2-2 14.8-1.8s-4.1 4.5-10.5 9.6c-11.2 9-11.6 9.5-11.6 13.1 0 2.1.3 5.3.6 7l.7 3.2 7-.3 7-.3 6.6-9.1c3.6-5 7.6-10.4 8.9-12l2.3-2.9-.5 4.5c-.3 2.5-1.1 9.4-1.7 15.3l-1.2 10.8 4.9 4.4c2.7 2.4 5.1 4.4 5.4 4.4.3.1 2.8-2.1 5.6-4.7l5.1-4.7-2.4-13.5c-1.3-7.4-2.2-14.1-2.1-14.8.2-.7 4.3 3.9 9.1 10.3l8.8 11.5h14.7l.4-7 .3-6.9-12.3-9.2c-6.7-5.1-12-9.4-11.8-9.6s7 .6 15.1 1.7l14.7 2.1 4.8-5.3 4.9-5.3-5.2-5.2-5.2-5.1-13.9 2.3c-7.7 1.3-14.3 2.2-14.7 1.9-.5-.3 4.5-4.6 11.1-9.6 11.6-8.7 12-9.2 12-12.8 0-2.1-.3-5.2-.6-6.9l-.6-3.1h-14.3l-8.9 12.1c-4.8 6.6-8.9 11.9-9.1 11.7s.7-6.9 1.9-15l2.2-14.8-5.1-5c-2.8-2.7-5.3-5-5.6-5-.2 0-2.7 2.2-5.4 5M574 483.7c-1.7 6.5-6.2 23-10 36.8-3.8 13.7-10.3 37.8-14.6 53.5-4.2 15.7-10.3 37.9-13.5 49.5-3.2 11.5-7 25.7-8.4 31.5-1.5 5.8-5.1 19-8 29.5-2.9 10.4-7.6 27.5-10.5 38-2.8 10.4-5.2 19-5.3 19.1s-22 .5-48.7.8c-26.7.4-54.2.9-61.1 1.2l-12.6.5-.6-26.3c-.4-14.5-1.2-68.1-1.9-119.1-.9-73.6-.9-93.8 0-97.5 1.6-6 7.5-14.6 11.8-17.3 3.4-2 4.3-4.9 2.6-7.6-.6-1-7.9-1.1-32.5-.6l-31.7.6v3.8c0 2.9.5 3.9 2 4.4 3.2 1 10.7 10.2 12.5 15.3 2.3 6.2 2.3 7.7 4 135.7.9 72.5 1.1 110.5.4 113.4-1.8 7.9-6.1 14.6-12.1 18.7-3 2.1-3.8 3.3-3.8 5.7v3l64.8-.6c35.6-.4 79.6-1 97.8-1.4l33.1-.6 3.3-12.6c1.8-6.9 5.9-21.8 9.1-33.1s7.1-26.1 8.8-32.9 4.9-18.5 7.1-26c2.1-7.5 5-18.3 6.5-24.1 1.4-5.8 5-19.3 8-30s7.7-28.3 10.6-39c2.8-10.7 5.9-22.4 6.9-25.9.9-3.5 1.9-6 2.2-5.5s2.9 9.7 5.8 20.4 7.7 28.3 10.7 39c7.6 27 13.3 49.3 12.8 49.8-.2.3-11.4.7-24.7 1l-24.4.5-4.2 15.1c-2.3 8.3-4.2 15.4-4.2 15.8s15.2.6 33.7.5l33.7-.2.9 4c.5 2.2 3.9 14.1 7.5 26.5 6 20.6 6.6 23.3 6.6 32.1.1 9.5 0 9.8-3.2 13.8-2.3 2.9-3.2 5-3 6.9.3 2.4.7 2.7 4.1 2.6 2 0 15.2-.1 29.2-.2l25.5-.2v-3.4c0-3-.6-3.7-4.4-6-5.2-3-8.8-7.1-12-13.5-2.9-5.7-6.6-18.7-50.6-178.1-4.5-16.2-11.2-40.5-14.9-54-3.8-13.5-8.1-29.1-9.6-34.8l-2.7-10.2h-25.6z"/><path d="m491.3 492.9-16.2 16.8 4 3.9c6.3 6.1 11 13.7 12.5 20.1 1.1 4.5 1.4 16.2 1.4 50.9 0 74 1.2 147.5 2.4 147.1.5-.2 2.7-6.8 4.9-14.8 2.2-7.9 7-25.7 10.7-39.4 3.8-13.8 8.5-31 10.4-38.3l3.6-13.3v-46.3c0-54.5-.4-52 10.1-63.1l6.8-7.1-16.7-16.7c-9.2-9.2-16.9-16.7-17.2-16.6-.3 0-7.8 7.6-16.7 16.8m3.4 291.8c-.4.3-.7 6.8-.7 14.3 0 18.5-1.2 22.4-9.6 30.8-4.9 4.9-6.4 7.1-6.4 9.3v2.9h12.3c6.7 0 21.3-.3 32.5-.7l20.2-.6v-3.3c0-2.6-.6-3.7-2.7-4.8-9.8-5.1-14.3-16.9-14.3-37.8V784h-15.3c-8.5 0-15.7.3-16 .7"/>
  </g>
</svg>
